<?xml version="1.0" encoding="iso-8859-1"?>
<!-- Uploaded to: SVG Repo, www.svgrepo.com, Generator: SVG Repo Mixer Tools -->
<svg height="800px" width="800px" version="1.1" id="Layer_1" xmlns="http://www.w3.org/2000/svg" xmlns:xlink="http://www.w3.org/1999/xlink" 
	 viewBox="0 0 512 512" xml:space="preserve">
<path style="fill:#47CEAC;" d="M512,256.006C512,397.402,397.394,512.004,256.004,512C114.606,512.004,0,397.402,0,256.006
	C-0.007,114.61,114.606,0,256.004,0C397.394,0,512,114.614,512,256.006z"/>
<path style="fill:#36BB9A;" d="M511.477,271.674c-0.164-0.164-0.327-0.33-0.492-0.492c-0.305-0.307-134.306-134.308-134.615-134.615
	C345.609,105.566,303.018,86.322,256,86.322c-93.559,0-169.678,76.118-169.678,169.678c0,47.015,19.243,89.604,50.241,120.366
	c0.308,0.311,0.618,0.62,0.928,0.928c0.309,0.311,133.389,133.391,133.701,133.7c0.16,0.161,0.322,0.323,0.483,0.482
	C400.574,503.692,503.689,400.576,511.477,271.674z"/>
<g>
	<path style="fill:#F4F6F9;" d="M256,86.322c-93.559,0-169.678,76.119-169.678,169.678S162.441,425.678,256,425.678
		S425.678,349.559,425.678,256S349.559,86.322,256,86.322z M256,411.538c-85.764,0-155.538-69.774-155.538-155.538
		S170.236,100.462,256,100.462S411.538,170.236,411.538,256S341.764,411.538,256,411.538z"/>
	<path style="fill:#F4F6F9;" d="M328.77,272.211l-65.7,65.7V157.021c0-3.908-3.166-7.07-7.07-7.07c-3.904,0-7.07,3.162-7.07,7.07
		v180.891l-65.7-65.7c-2.762-2.762-7.235-2.762-9.997,0s-2.762,7.235,0,9.997l77.764,77.764c0.653,0.654,1.436,1.172,2.303,1.531
		c0.864,0.357,1.78,0.545,2.701,0.545c0.921,0,1.837-0.188,2.701-0.545c0.867-0.359,1.65-0.877,2.303-1.531l77.764-77.764
		c2.762-2.762,2.762-7.235,0-9.997C336.007,269.45,331.533,269.45,328.77,272.211z"/>
</g>
</svg>