<?xml version="1.0" encoding="iso-8859-1"?>
<!-- Uploaded to: SVG Repo, www.svgrepo.com, Generator: SVG Repo Mixer Tools -->
<svg height="800px" width="800px" version="1.1" id="Layer_1" xmlns="http://www.w3.org/2000/svg" xmlns:xlink="http://www.w3.org/1999/xlink" 
	 viewBox="0 0 511.99 511.99" xml:space="preserve">
<path style="fill:#A0D468;" d="M401.739,97.798c-8.734-47.155-69.826-21.156-83.357-21.156s38.844-50.483-26.812-69.529
	c-87.006-25.249-72.006,23.578-104.755,39.89c-32.718,16.328-63.53-24.171-75.748,0c-12.218,24.187,65.28,218.229,65.28,218.229
	l123.271,6.687C299.617,271.918,410.474,144.953,401.739,97.798z"/>
<path style="fill:#FC6E51;" d="M373.834,175.484c3.031,11.375-3.734,23.077-15.108,26.108l-41.234,11
	c-11.375,3.047-23.077-3.719-26.108-15.109l-10.999-41.218c-3.047-11.39,3.718-23.077,15.108-26.108l41.218-11.016
	c11.375-3.031,23.078,3.734,26.109,15.109L373.834,175.484z"/>
<path style="fill:#ED5564;" d="M221.736,114.641c-25.046-15.484-57.905-7.75-73.405,17.296c-15.5,25.03-7.765,57.905,17.281,73.404
	c25.046,15.484,57.92,7.75,73.405-17.296C254.516,163.015,246.782,130.141,221.736,114.641z"/>
<path style="fill:#FFCE54;" d="M295.32,251.716c-3.016,11.39-14.702,18.17-26.101,15.139l-61.858-16.389
	c-11.39-3.016-18.171-14.703-15.156-26.093L230.47,80.032c3.031-11.39,14.703-18.171,26.093-15.156l61.865,16.406
	c11.391,3.016,18.172,14.703,15.156,26.093L295.32,251.716z"/>
<path style="fill:#EAAD7A;" d="M129.676,405.321h256.001V149.328c-42.67,0-256.001,85.326-256.001,85.326V405.321z"/>
<g style="opacity:0.1;">
	<path d="M129.676,234.654v170.667h256.001V213.327c0,0-45.154-18.062-98.075-37.577
		C214.283,200.811,129.676,234.654,129.676,234.654z"/>
</g>
<path style="fill:#F4BE8E;" d="M385.677,490.647c0,11.781-9.546,21.343-21.327,21.343H151.003c-11.781,0-21.328-9.562-21.328-21.343
	V149.328c42.671,0,256.001,85.326,256.001,85.326v255.993H385.677z"/>
<g>
	<path style="fill:#EAAD7A;" d="M222.548,259.106c-4.156-4.156-10.921-4.156-15.078,0c-2.094,2.094-3.125,4.812-3.125,7.546l0,0
		V437.32l0,0c0,2.734,1.031,5.453,3.125,7.547c4.156,4.156,10.922,4.156,15.078,0c2.078-2.094,3.125-4.812,3.125-7.547l0,0V266.652
		l0,0C225.673,263.919,224.626,261.2,222.548,259.106z"/>
	<path style="fill:#EAAD7A;" d="M300.351,266.652L300.351,266.652c0-2.733-1.047-5.452-3.125-7.546
		c-4.172-4.156-10.922-4.156-15.093,0c-2.078,2.094-3.125,4.812-3.125,7.546l0,0V437.32l0,0c0,2.734,1.047,5.453,3.125,7.547
		c4.171,4.156,10.921,4.156,15.093,0c2.078-2.094,3.125-4.812,3.125-7.547l0,0V266.652z"/>
</g>
</svg>